<?xml version="1.0" encoding="utf-8"?>
<!-- Generator: Adobe Illustrator 25.3.1, SVG Export Plug-In . SVG Version: 6.00 Build 0)  -->
<svg version="1.1" id="Layer_1" xmlns="http://www.w3.org/2000/svg" xmlns:xlink="http://www.w3.org/1999/xlink" x="0px" y="0px"
	 viewBox="0 0 400 400" style="enable-background:new 0 0 400 400;" xml:space="preserve">
<style type="text/css">
	.st0{fill:#FF0F64;}
	.st1{fill:none;stroke:#FF0F64;stroke-width:15;stroke-miterlimit:10;}
	.st2{fill:#666666;}
	.st3{fill:#666666;stroke:#FFFFFF;stroke-width:10;stroke-miterlimit:10;}
	.st4{fill:none;stroke:#FFFFFF;stroke-width:10;stroke-miterlimit:10;}
</style>
<path class="st2" d="M374.1,287.9c-27.7-24.6-75.1-42.6-111.8-42.2c-11,8.2-32.7,31.5-40.5,42.7c-20.8-7.1-43.4-29.8-63.4-54.1
	s-37.9-50.9-40.9-72.7c12.5-5.5,39.5-22.3,49.7-31.5c7.5-36-1-86-19.8-117.9C125.5,8.5,73,9.6,35,26.9
	c-15.6,46.3-20.8,150.7,66.1,260.5c91,106.4,195.7,106.2,244.2,99.9C369.5,353.3,373.4,310,374.1,287.9z"/>
</svg>
