<?xml version="1.0" encoding="utf-8"?>
<!-- Generator: Adobe Illustrator 25.3.1, SVG Export Plug-In . SVG Version: 6.00 Build 0)  -->
<svg version="1.1" id="Layer_1" xmlns="http://www.w3.org/2000/svg" xmlns:xlink="http://www.w3.org/1999/xlink" x="0px" y="0px"
	 viewBox="0 0 400 400" style="enable-background:new 0 0 400 400;" xml:space="preserve">
<style type="text/css">
	.st0{fill:white;}
	.st1{fill:none;stroke:white;stroke-width:15;stroke-miterlimit:10;}
	.st2{fill:#666666;}
	.st3{fill:#666666;stroke:#FFFFFF;stroke-width:10;stroke-miterlimit:10;}
	.st4{fill:none;stroke:#FFFFFF;stroke-width:10;stroke-miterlimit:10;}
</style>
<g>
	<g>
		<path class="st1" d="M67.4,179.2H42.5c-9.2,0-16.6,8.3-16.6,18.5V244c0,10.2,7.4,18.5,16.6,18.5h24.9V148.6
			c0-61.3,61.3-127.7,136.8-127.7s136.8,66.4,136.8,127.7v63.9"/>
		<path class="st1" d="M340.9,179.2h16.6c9.2,0,16.6,8.3,16.6,18.5V244c0,10.2-7.4,18.5-16.6,18.5h-16.6"/>
		<path class="st1" d="M307.8,212.5l0,25c-0.2,30-15.4,68.8-41.4,88.5"/>
		<path class="st1" d="M150.3,79.2c0,58.3,115.5,133.3,174.1,133.3"/>
		<path class="st1" d="M158.6,112.5c-24.9,10.4-58,56.7-58,91.6v33.3c0,36.6,25.5,81.1,67,99.9"/>
		<path class="st1" d="M241.4,362.4c0,9.2-7.4,16.7-16.6,16.7H200c-9.2,0-16.6-7.5-16.6-16.7l0,0c0-9.2,7.4-16.7,16.6-16.7h24.9
			C234,345.8,241.4,353.2,241.4,362.4L241.4,362.4z"/>
		<path class="st1" d="M233.2,362.4h9.8c54.1,0,98-44.1,98-98.4v-26.5"/>
	</g>
</g>
</svg>
